<?xml version='1.0' encoding='UTF-8' standalone='no'?>
<!-- Created with Fritzing (http://www.fritzing.org/) -->
<svg xmlns="http://www.w3.org/2000/svg" width="6in" x="0in" version="1.2" y="0in"  height="0.787402in" viewBox="0 0 432 56.6929" baseProfile="tiny" xmlns:svg="http://www.w3.org/2000/svg">
 <g transform="matrix(-1, 0, 0, 1, 432, 0)">
  <g partID="9060381">
   <g id="silkscreen0">
    <rect width="431.424" x="0.288" y="0.288" fill="none" height="56.1169" stroke="black" stroke-width="0.576"/>
   </g>
  </g>
  <g partID="9060380">
   <g id="board">
    <rect width="431.424" x="0.288" y="0.288" fill="none" height="56.1169" stroke="black" fill-opacity="0.5" id="boardoutline" stroke-width="0.5"/>
   </g>
  </g>
  <g partID="12475071">
   <g transform="translate(144.263,46.0896)">
    <g transform="matrix(-1,0,0,-1,0,0)">
     <g flipped="1" id="silkscreen0">
      <g transform="matrix(-1, 0, 0, 1, 37.417, 0)">
       <g>
        <g>
         <g>
          <polyline fill="none" points="31.58,2.227,36.771,2.227,36.771,34.825,31.58,34.825" stroke="black" id="_x30_.1.1.0" stroke-width="0.9" stroke-miterlimit="10"/>
          <polyline fill="none" points="20.928,34.825,0.567,34.825,0.567,2.227,20.928,2.227" stroke="black" id="_x30_.1.1.1" stroke-width="0.9" stroke-miterlimit="10"/>
         </g>
        </g>
       </g>
      </g>
     </g>
    </g>
   </g>
  </g>
  <g partID="12475051">
   <g transform="translate(197.863,46.0896)">
    <g transform="matrix(-1,0,0,-1,0,0)">
     <g flipped="1" id="silkscreen0">
      <g transform="matrix(-1, 0, 0, 1, 37.417, 0)">
       <g>
        <g>
         <g>
          <polyline fill="none" points="31.58,2.227,36.771,2.227,36.771,34.825,31.58,34.825" stroke="black" id="_x30_.1.1.0" stroke-width="0.9" stroke-miterlimit="10"/>
          <polyline fill="none" points="20.928,34.825,0.567,34.825,0.567,2.227,20.928,2.227" stroke="black" id="_x30_.1.1.1" stroke-width="0.9" stroke-miterlimit="10"/>
         </g>
        </g>
       </g>
      </g>
     </g>
    </g>
   </g>
  </g>
  <g partID="12475031">
   <g transform="translate(360.263,46.0896)">
    <g transform="matrix(-1,0,0,-1,0,0)">
     <g flipped="1" id="silkscreen0">
      <g transform="matrix(-1, 0, 0, 1, 37.417, 0)">
       <g>
        <g>
         <g>
          <polyline fill="none" points="31.58,2.227,36.771,2.227,36.771,34.825,31.58,34.825" stroke="black" id="_x30_.1.1.0" stroke-width="0.9" stroke-miterlimit="10"/>
          <polyline fill="none" points="20.928,34.825,0.567,34.825,0.567,2.227,20.928,2.227" stroke="black" id="_x30_.1.1.1" stroke-width="0.9" stroke-miterlimit="10"/>
         </g>
        </g>
       </g>
      </g>
     </g>
    </g>
   </g>
  </g>
  <g partID="12474981">
   <g transform="translate(413.863,46.0896)">
    <g transform="matrix(-1,0,0,-1,0,0)">
     <g flipped="1" id="silkscreen0">
      <g transform="matrix(-1, 0, 0, 1, 37.417, 0)">
       <g>
        <g>
         <g>
          <polyline fill="none" points="31.58,2.227,36.771,2.227,36.771,34.825,31.58,34.825" stroke="black" id="_x30_.1.1.0" stroke-width="0.9" stroke-miterlimit="10"/>
          <polyline fill="none" points="20.928,34.825,0.567,34.825,0.567,2.227,20.928,2.227" stroke="black" id="_x30_.1.1.1" stroke-width="0.9" stroke-miterlimit="10"/>
         </g>
        </g>
       </g>
      </g>
     </g>
    </g>
   </g>
  </g>
  <g partID="12475271">
   <g transform="translate(30.7656,11.0096)">
    <g flipped="1" id="silkscreen0">
     <g transform="matrix(-1, 0, 0, 1, 10.08, 0)">
      <g>
       <g>
        <g>
         <line stroke="black" y1="1.44" stroke-width="0.72" x1="1.44" y2="8.64" x2="1.44"/>
         <line stroke="black" y1="8.64" stroke-width="0.72" x1="1.44" y2="8.64" x2="8.64"/>
         <line stroke="black" y1="8.64" stroke-width="0.72" x1="8.64" y2="1.44" x2="8.64"/>
         <line stroke="black" y1="1.44" stroke-width="0.72" x1="8.64" y2="1.44" x2="1.44"/>
         <line stroke="black" y1="3.96" stroke-width="0.36" x1="1.44" y2="1.44" x2="3.96"/>
         <!-- 120 -->
        </g>
       </g>
      </g>
     </g>
    </g>
   </g>
  </g>
  <g partID="12475251">
   <g transform="translate(85.9656,11.0096)">
    <g flipped="1" id="silkscreen0">
     <g transform="matrix(-1, 0, 0, 1, 10.08, 0)">
      <g>
       <g>
        <g>
         <line stroke="black" y1="1.44" stroke-width="0.72" x1="1.44" y2="8.64" x2="1.44"/>
         <line stroke="black" y1="8.64" stroke-width="0.72" x1="1.44" y2="8.64" x2="8.64"/>
         <line stroke="black" y1="8.64" stroke-width="0.72" x1="8.64" y2="1.44" x2="8.64"/>
         <line stroke="black" y1="1.44" stroke-width="0.72" x1="8.64" y2="1.44" x2="1.44"/>
         <line stroke="black" y1="3.96" stroke-width="0.36" x1="1.44" y2="1.44" x2="3.96"/>
         <!-- 120 -->
        </g>
       </g>
      </g>
     </g>
    </g>
   </g>
  </g>
  <g partID="12475231">
   <g transform="translate(246.766,11.0096)">
    <g flipped="1" id="silkscreen0">
     <g transform="matrix(-1, 0, 0, 1, 10.08, 0)">
      <g>
       <g>
        <g>
         <line stroke="black" y1="1.44" stroke-width="0.72" x1="1.44" y2="8.64" x2="1.44"/>
         <line stroke="black" y1="8.64" stroke-width="0.72" x1="1.44" y2="8.64" x2="8.64"/>
         <line stroke="black" y1="8.64" stroke-width="0.72" x1="8.64" y2="1.44" x2="8.64"/>
         <line stroke="black" y1="1.44" stroke-width="0.72" x1="8.64" y2="1.44" x2="1.44"/>
         <line stroke="black" y1="3.96" stroke-width="0.36" x1="1.44" y2="1.44" x2="3.96"/>
         <!-- 120 -->
        </g>
       </g>
      </g>
     </g>
    </g>
   </g>
  </g>
  <g partID="12475211">
   <g transform="translate(301.966,11.0096)">
    <g flipped="1" id="silkscreen0">
     <g transform="matrix(-1, 0, 0, 1, 10.08, 0)">
      <g>
       <g>
        <g>
         <line stroke="black" y1="1.44" stroke-width="0.72" x1="1.44" y2="8.64" x2="1.44"/>
         <line stroke="black" y1="8.64" stroke-width="0.72" x1="1.44" y2="8.64" x2="8.64"/>
         <line stroke="black" y1="8.64" stroke-width="0.72" x1="8.64" y2="1.44" x2="8.64"/>
         <line stroke="black" y1="1.44" stroke-width="0.72" x1="8.64" y2="1.44" x2="1.44"/>
         <line stroke="black" y1="3.96" stroke-width="0.36" x1="1.44" y2="1.44" x2="3.96"/>
         <!-- 120 -->
        </g>
       </g>
      </g>
     </g>
    </g>
   </g>
  </g>
  <g partID="9060381">
   <g id="silkscreen0">
    <rect width="431.424" x="0.288" y="0.288" fill="none" height="56.1169" stroke="black" stroke-width="0.576"/>
   </g>
  </g>
  <g id="partLabel" partID="12475050">
   <g transform="translate(182.502,30.0896)">
    <g transform="matrix(1,0,0,-1,0,0)">
     <g fill="#000000" font-family="'OCRA'" stroke="none" font-style="normal" fill-opacity="1" font-weight="normal" id="silkscreen0Label" font-size="5">
      <text x="0" y="3.75">R3</text>
     </g>
    </g>
   </g>
  </g>
  <g id="partLabel" partID="12475030">
   <g transform="translate(344.902,30.0896)">
    <g transform="matrix(1,0,0,-1,0,0)">
     <g fill="#000000" font-family="'OCRA'" stroke="none" font-style="normal" fill-opacity="1" font-weight="normal" id="silkscreen0Label" font-size="5">
      <text x="0" y="3.75">R2</text>
     </g>
    </g>
   </g>
  </g>
  <g id="partLabel" partID="12475070">
   <g transform="translate(106.846,3.4896)">
    <g transform="matrix(-1,0,0,1,0,0)">
     <g fill="#000000" font-family="'OCRA'" stroke="none" font-style="normal" fill-opacity="1" font-weight="normal" id="silkscreen0Label" font-size="5">
      <text x="0" y="3.75">R4</text>
     </g>
    </g>
   </g>
  </g>
  <g id="partLabel" partID="12474980">
   <g transform="translate(398.502,30.0896)">
    <g transform="matrix(1,0,0,-1,0,0)">
     <g fill="#000000" font-family="'OCRA'" stroke="none" font-style="normal" fill-opacity="1" font-weight="normal" id="silkscreen0Label" font-size="5">
      <text x="0" y="3.75">R1</text>
     </g>
    </g>
   </g>
  </g>
  <g id="partLabel" partID="12475270">
   <g transform="translate(41.0056,5.2496)">
    <g transform="matrix(-1,0,0,1,0,0)">
     <g fill="#000000" font-family="'OCRA'" stroke="none" font-style="normal" fill-opacity="1" font-weight="normal" id="silkscreen0Label" font-size="5">
      <text x="0" y="3.75">out1</text>
     </g>
    </g>
   </g>
  </g>
  <g id="partLabel" partID="12475210">
   <g transform="translate(302.126,5.4096)">
    <g transform="matrix(-1,0,0,1,0,0)">
     <g fill="#000000" font-family="'OCRA'" stroke="none" font-style="normal" fill-opacity="1" font-weight="normal" id="silkscreen0Label" font-size="5">
      <text x="0" y="3.75">in2</text>
     </g>
    </g>
   </g>
  </g>
  <g id="partLabel" partID="12475250">
   <g transform="translate(86.1256,5.4096)">
    <g transform="matrix(-1,0,0,1,0,0)">
     <g fill="#000000" font-family="'OCRA'" stroke="none" font-style="normal" fill-opacity="1" font-weight="normal" id="silkscreen0Label" font-size="5">
      <text x="0" y="3.75">in1</text>
     </g>
    </g>
   </g>
  </g>
  <g id="partLabel" partID="12475230">
   <g transform="translate(246.926,5.4096)">
    <g transform="matrix(-1,0,0,1,0,0)">
     <g fill="#000000" font-family="'OCRA'" stroke="none" font-style="normal" fill-opacity="1" font-weight="normal" id="silkscreen0Label" font-size="5">
      <text x="0" y="3.75">out2</text>
     </g>
    </g>
   </g>
  </g>
  <g partID="12475070">
   <g transform="translate(144.263,46.0896)">
    <g transform="matrix(-1,0,0,-1,0,0)">
     <g flipped="1" id="copper0">
      <g transform="matrix(-1, 0, 0, 1, 37.417, 0)">
       <g>
        <g>
         <g>
          <g id="copper0">
           <rect width="4.176" x="2.944" y="9.239" fill="white" height="4.176" stroke="white" id="square" stroke-width="0.72"/>
           <circle fill="white" cx="5.032" cy="11.327" stroke="white" id="connector0pin" r="2.088" stroke-width="1.72"/>
           <circle fill="white" cx="5.031" cy="18.527" stroke="white" id="connector1pin" r="2.088" stroke-width="1.72"/>
           <circle fill="white" cx="5.032" cy="25.727" stroke="white" id="connector2pin" r="2.089" stroke-width="1.72"/>
           <g>
            <circle fill="white" cx="26.292" cy="4.548" stroke="white" id="noconnector" r="3.823" stroke-width="2.0044"/>
            <circle fill="white" cx="26.292" cy="32.506" stroke="white" id="noconnector_1_" r="3.823" stroke-width="2.0044"/>
           </g>
          </g>
         </g>
         <g>
          <rect width="4.176" x="2.944" y="9.239" fill="white" height="4.176" stroke="white" id="square" stroke-width="0.72"/>
          <circle fill="white" cx="5.032" cy="11.327" stroke="white" id="connector0pin" r="2.088" stroke-width="0.72"/>
          <circle fill="white" cx="5.031" cy="18.527" stroke="white" id="connector1pin" r="2.088" stroke-width="0.72"/>
          <circle fill="white" cx="5.032" cy="25.727" stroke="white" id="connector2pin" r="2.089" stroke-width="0.72"/>
          <g>
           <circle fill="white" cx="26.292" cy="4.548" stroke="white" id="noconnector" r="3.823" stroke-width="2.0044"/>
           <circle fill="white" cx="26.292" cy="32.506" stroke="white" id="noconnector_1_" r="3.823" stroke-width="2.0044"/>
          </g>
         </g>
        </g>
       </g>
      </g>
     </g>
    </g>
   </g>
  </g>
  <g partID="12475050">
   <g transform="translate(197.863,46.0896)">
    <g transform="matrix(-1,0,0,-1,0,0)">
     <g flipped="1" id="copper0">
      <g transform="matrix(-1, 0, 0, 1, 37.417, 0)">
       <g>
        <g>
         <g>
          <g id="copper0">
           <rect width="4.176" x="2.944" y="9.239" fill="white" height="4.176" stroke="white" id="square" stroke-width="0.72"/>
           <circle fill="white" cx="5.032" cy="11.327" stroke="white" id="connector0pin" r="2.088" stroke-width="1.72"/>
           <circle fill="white" cx="5.031" cy="18.527" stroke="white" id="connector1pin" r="2.088" stroke-width="1.72"/>
           <circle fill="white" cx="5.032" cy="25.727" stroke="white" id="connector2pin" r="2.089" stroke-width="1.72"/>
           <g>
            <circle fill="white" cx="26.292" cy="4.548" stroke="white" id="noconnector" r="3.823" stroke-width="2.0044"/>
            <circle fill="white" cx="26.292" cy="32.506" stroke="white" id="noconnector_1_" r="3.823" stroke-width="2.0044"/>
           </g>
          </g>
         </g>
         <g>
          <rect width="4.176" x="2.944" y="9.239" fill="white" height="4.176" stroke="white" id="square" stroke-width="0.72"/>
          <circle fill="white" cx="5.032" cy="11.327" stroke="white" id="connector0pin" r="2.088" stroke-width="0.72"/>
          <circle fill="white" cx="5.031" cy="18.527" stroke="white" id="connector1pin" r="2.088" stroke-width="0.72"/>
          <circle fill="white" cx="5.032" cy="25.727" stroke="white" id="connector2pin" r="2.089" stroke-width="0.72"/>
          <g>
           <circle fill="white" cx="26.292" cy="4.548" stroke="white" id="noconnector" r="3.823" stroke-width="2.0044"/>
           <circle fill="white" cx="26.292" cy="32.506" stroke="white" id="noconnector_1_" r="3.823" stroke-width="2.0044"/>
          </g>
         </g>
        </g>
       </g>
      </g>
     </g>
    </g>
   </g>
  </g>
  <g partID="12475030">
   <g transform="translate(360.263,46.0896)">
    <g transform="matrix(-1,0,0,-1,0,0)">
     <g flipped="1" id="copper0">
      <g transform="matrix(-1, 0, 0, 1, 37.417, 0)">
       <g>
        <g>
         <g>
          <g id="copper0">
           <rect width="4.176" x="2.944" y="9.239" fill="white" height="4.176" stroke="white" id="square" stroke-width="0.72"/>
           <circle fill="white" cx="5.032" cy="11.327" stroke="white" id="connector0pin" r="2.088" stroke-width="1.72"/>
           <circle fill="white" cx="5.031" cy="18.527" stroke="white" id="connector1pin" r="2.088" stroke-width="1.72"/>
           <circle fill="white" cx="5.032" cy="25.727" stroke="white" id="connector2pin" r="2.089" stroke-width="1.72"/>
           <g>
            <circle fill="white" cx="26.292" cy="4.548" stroke="white" id="noconnector" r="3.823" stroke-width="2.0044"/>
            <circle fill="white" cx="26.292" cy="32.506" stroke="white" id="noconnector_1_" r="3.823" stroke-width="2.0044"/>
           </g>
          </g>
         </g>
         <g>
          <rect width="4.176" x="2.944" y="9.239" fill="white" height="4.176" stroke="white" id="square" stroke-width="0.72"/>
          <circle fill="white" cx="5.032" cy="11.327" stroke="white" id="connector0pin" r="2.088" stroke-width="0.72"/>
          <circle fill="white" cx="5.031" cy="18.527" stroke="white" id="connector1pin" r="2.088" stroke-width="0.72"/>
          <circle fill="white" cx="5.032" cy="25.727" stroke="white" id="connector2pin" r="2.089" stroke-width="0.72"/>
          <g>
           <circle fill="white" cx="26.292" cy="4.548" stroke="white" id="noconnector" r="3.823" stroke-width="2.0044"/>
           <circle fill="white" cx="26.292" cy="32.506" stroke="white" id="noconnector_1_" r="3.823" stroke-width="2.0044"/>
          </g>
         </g>
        </g>
       </g>
      </g>
     </g>
    </g>
   </g>
  </g>
  <g partID="12474980">
   <g transform="translate(413.863,46.0896)">
    <g transform="matrix(-1,0,0,-1,0,0)">
     <g flipped="1" id="copper0">
      <g transform="matrix(-1, 0, 0, 1, 37.417, 0)">
       <g>
        <g>
         <g>
          <g id="copper0">
           <rect width="4.176" x="2.944" y="9.239" fill="white" height="4.176" stroke="white" id="square" stroke-width="0.72"/>
           <circle fill="white" cx="5.032" cy="11.327" stroke="white" id="connector0pin" r="2.088" stroke-width="1.72"/>
           <circle fill="white" cx="5.031" cy="18.527" stroke="white" id="connector1pin" r="2.088" stroke-width="1.72"/>
           <circle fill="white" cx="5.032" cy="25.727" stroke="white" id="connector2pin" r="2.089" stroke-width="1.72"/>
           <g>
            <circle fill="white" cx="26.292" cy="4.548" stroke="white" id="noconnector" r="3.823" stroke-width="2.0044"/>
            <circle fill="white" cx="26.292" cy="32.506" stroke="white" id="noconnector_1_" r="3.823" stroke-width="2.0044"/>
           </g>
          </g>
         </g>
         <g>
          <rect width="4.176" x="2.944" y="9.239" fill="white" height="4.176" stroke="white" id="square" stroke-width="0.72"/>
          <circle fill="white" cx="5.032" cy="11.327" stroke="white" id="connector0pin" r="2.088" stroke-width="0.72"/>
          <circle fill="white" cx="5.031" cy="18.527" stroke="white" id="connector1pin" r="2.088" stroke-width="0.72"/>
          <circle fill="white" cx="5.032" cy="25.727" stroke="white" id="connector2pin" r="2.089" stroke-width="0.72"/>
          <g>
           <circle fill="white" cx="26.292" cy="4.548" stroke="white" id="noconnector" r="3.823" stroke-width="2.0044"/>
           <circle fill="white" cx="26.292" cy="32.506" stroke="white" id="noconnector_1_" r="3.823" stroke-width="2.0044"/>
          </g>
         </g>
        </g>
       </g>
      </g>
     </g>
    </g>
   </g>
  </g>
  <g partID="12475160">
   <g transform="translate(282.066,14.711)">
    <g id="copper0">
     <circle fill="white" cx="12.9386" cy="12.9386" stroke="white" r="11.3386" id="nonconn0" stroke-width="0.72"/>
    </g>
   </g>
  </g>
  <g partID="12475140">
   <g transform="translate(227.986,14.711)">
    <g id="copper0">
     <circle fill="white" cx="12.9386" cy="12.9386" stroke="white" r="11.3386" id="nonconn0" stroke-width="0.72"/>
    </g>
   </g>
  </g>
  <g partID="12475120">
   <g transform="translate(66.0664,14.871)">
    <g id="copper0">
     <circle fill="white" cx="12.9386" cy="12.9386" stroke="white" r="11.3386" id="nonconn0" stroke-width="0.72"/>
    </g>
   </g>
  </g>
  <g partID="12475090">
   <g transform="translate(11.9864,14.871)">
    <g id="copper0">
     <circle fill="white" cx="12.9386" cy="12.9386" stroke="white" r="11.3386" id="nonconn0" stroke-width="0.72"/>
    </g>
   </g>
  </g>
  <g partID="12475270">
   <g transform="translate(30.7656,11.0096)">
    <g flipped="1" id="copper0">
     <g transform="matrix(-1, 0, 0, 1, 10.08, 0)">
      <g>
       <g>
        <g>
         <g id="copper0">
          <circle fill="white" cx="5.04" cy="5.04" stroke="white" id="connector0pin" r="2.088" stroke-width="2.16"/>
         </g>
        </g>
        <g>
         <circle fill="white" cx="5.04" cy="5.04" stroke="white" id="connector0pin" r="2.088" stroke-width="2.16"/>
        </g>
       </g>
      </g>
     </g>
    </g>
   </g>
  </g>
  <g partID="12475250">
   <g transform="translate(85.9656,11.0096)">
    <g flipped="1" id="copper0">
     <g transform="matrix(-1, 0, 0, 1, 10.08, 0)">
      <g>
       <g>
        <g>
         <g id="copper0">
          <circle fill="white" cx="5.04" cy="5.04" stroke="white" id="connector0pin" r="2.088" stroke-width="2.16"/>
         </g>
        </g>
        <g>
         <circle fill="white" cx="5.04" cy="5.04" stroke="white" id="connector0pin" r="2.088" stroke-width="2.16"/>
        </g>
       </g>
      </g>
     </g>
    </g>
   </g>
  </g>
  <g partID="12475230">
   <g transform="translate(246.766,11.0096)">
    <g flipped="1" id="copper0">
     <g transform="matrix(-1, 0, 0, 1, 10.08, 0)">
      <g>
       <g>
        <g>
         <g id="copper0">
          <circle fill="white" cx="5.04" cy="5.04" stroke="white" id="connector0pin" r="2.088" stroke-width="2.16"/>
         </g>
        </g>
        <g>
         <circle fill="white" cx="5.04" cy="5.04" stroke="white" id="connector0pin" r="2.088" stroke-width="2.16"/>
        </g>
       </g>
      </g>
     </g>
    </g>
   </g>
  </g>
  <g partID="12475210">
   <g transform="translate(301.966,11.0096)">
    <g flipped="1" id="copper0">
     <g transform="matrix(-1, 0, 0, 1, 10.08, 0)">
      <g>
       <g>
        <g>
         <g id="copper0">
          <circle fill="white" cx="5.04" cy="5.04" stroke="white" id="connector0pin" r="2.088" stroke-width="2.16"/>
         </g>
        </g>
        <g>
         <circle fill="white" cx="5.04" cy="5.04" stroke="white" id="connector0pin" r="2.088" stroke-width="2.16"/>
        </g>
       </g>
      </g>
     </g>
    </g>
   </g>
  </g>
  <g partID="12481530">
   <g transform="translate(255.318,9.94264)">
    <g id="copper0">
     <circle fill="white" cx="3.01732" cy="3.01732" stroke="white" r="0.992124" id="connector0pin" stroke-width="1.57039"/>
    </g>
   </g>
  </g>
  <g partID="12453810">
   <g transform="translate(335.782,46.0237)">
    <g transform="matrix(0,1,-1,0,0,0)">
     <g id="copper0">
      <circle fill="white" cx="5.04" cy="5.04" stroke="white" id="connector0pin" r="1.84252" stroke-width="1.57039"/>
      <circle fill="white" cx="5.04" cy="12.24" stroke="white" id="connector1pin" r="1.84252" stroke-width="1.57039"/>
      <circle fill="white" cx="5.04" cy="19.44" stroke="white" id="connector2pin" r="1.84252" stroke-width="1.57039"/>
      <circle fill="white" cx="5.04" cy="26.64" stroke="white" id="connector3pin" r="1.84252" stroke-width="1.57039"/>
      <circle fill="white" cx="5.04" cy="33.84" stroke="white" id="connector4pin" r="1.84252" stroke-width="1.57039"/>
      <circle fill="white" cx="5.04" cy="41.04" stroke="white" id="connector5pin" r="1.84252" stroke-width="1.57039"/>
      <circle fill="white" cx="5.04" cy="48.24" stroke="white" id="connector6pin" r="1.84252" stroke-width="1.57039"/>
     </g>
    </g>
   </g>
  </g>
  <g partID="12451640">
   <g transform="translate(155.87,46.339)">
    <g transform="matrix(0,1,-1,0,0,0)">
     <g id="copper0">
      <circle fill="white" cx="5.04" cy="5.04" stroke="white" id="connector0pin" r="1.84252" stroke-width="1.57039"/>
      <circle fill="white" cx="5.04" cy="12.24" stroke="white" id="connector1pin" r="1.84252" stroke-width="1.57039"/>
      <circle fill="white" cx="5.04" cy="19.44" stroke="white" id="connector2pin" r="1.84252" stroke-width="1.57039"/>
      <circle fill="white" cx="5.04" cy="26.64" stroke="white" id="connector3pin" r="1.84252" stroke-width="1.57039"/>
      <circle fill="white" cx="5.04" cy="33.84" stroke="white" id="connector4pin" r="1.84252" stroke-width="1.57039"/>
      <circle fill="white" cx="5.04" cy="41.04" stroke="white" id="connector5pin" r="1.84252" stroke-width="1.57039"/>
      <circle fill="white" cx="5.04" cy="48.24" stroke="white" id="connector6pin" r="1.84252" stroke-width="1.57039"/>
     </g>
    </g>
   </g>
  </g>
  <g partID="9072400">
   <g transform="translate(413.226,3.87072)">
    <g id="copper0">
     <circle fill="white" cx="6.4189" cy="6.4189" stroke="white" r="4.67716" id="nonconn0" stroke-width="1.00347"/>
    </g>
   </g>
  </g>
  <g partID="9234270">
   <g transform="translate(5.0712,39.3859)">
    <g id="copper0">
     <circle fill="white" cx="6.4189" cy="6.4189" stroke="white" r="4.67716" id="nonconn0" stroke-width="1.00347"/>
    </g>
   </g>
  </g>
  <g partID="9072380">
   <g transform="translate(413.226,39.3859)">
    <g id="copper0">
     <circle fill="white" cx="6.4189" cy="6.4189" stroke="white" r="4.67716" id="nonconn0" stroke-width="1.00347"/>
    </g>
   </g>
  </g>
  <g partID="9072310">
   <g transform="translate(4.4264,3.87072)">
    <g id="copper0">
     <circle fill="white" cx="6.4189" cy="6.4189" stroke="white" r="4.67716" id="nonconn0" stroke-width="1.00347"/>
    </g>
   </g>
  </g>
 </g>
</svg>
